# xmcd
#
# Track frame offsets:
#	187
#	29000
#	54695
#	86420
#	110157
#	135652
#	154980
#	175905
#	206140
#	234122
#	249375
#
# Disc length: 3767 seconds
#
# Revision: 1
# Processed by: cddbd v1.5.1PL0 Copyright (c) Steve Scherf et al.
# Submitted via: CDex 1.50Beta5
#
DISCID=970eb50b
DTITLE=椎名豊 - ムービン・フォース
DYEAR=1994
DGENRE=Jazz
TTITLE0=ビー・バック・スーン
TTITLE1=シャッフル・ボイル
TTITLE2=ミスター・シムス
TTITLE3=ボディ・アンド・ソウル
TTITLE4=ビヨンド・ザ・ホライズン
TTITLE5=コットン・テイル
TTITLE6=アイム・コンフェッシン
TTITLE7=リメンバー
TTITLE8=ラッシュ・ライフ
TTITLE9=ユード・ビー
TTITLE10=ムービン・フォース
EXTD=
EXTT0=
EXTT1=
EXTT2=
EXTT3=
EXTT4=
EXTT5=
EXTT6=
EXTT7=
EXTT8=
EXTT9=
EXTT10=
PLAYORDER=
